HIERARCHY
ROOT Hips
{
	OFFSET 0.000000 0.000000 0.000000
	CHANNELS 6 Xposition Yposition Zposition Zrotation Yrotation Xrotation 
	JOINT LHipJoint
	{
		OFFSET 0.000000 0.000000 0.000000
		CHANNELS 3 Zrotation Yrotation Xrotation
		JOINT LeftUpLeg
		{
			OFFSET 1.363060 -1.794630 0.839290
			CHANNELS 3 Zrotation Yrotation Xrotation
			JOINT LeftLeg
			{
				OFFSET 2.448110 -6.726130 0.000000
				CHANNELS 3 Zrotation Yrotation Xrotation
				JOINT LeftFoot
				{
					OFFSET 2.562200 -7.039590 0.000000
					CHANNELS 3 Zrotation Yrotation Xrotation
					JOINT LeftToeBase
					{
						OFFSET 0.157640 -0.433110 2.322550
						CHANNELS 3 Zrotation Yrotation Xrotation
						End Site
						{
							OFFSET 0.000000 0.000000 0.000000
						}
					}
				}
			}
		}
	}
	JOINT RHipJoint
	{
		OFFSET 0.000000 0.000000 0.000000
		CHANNELS 3 Zrotation Yrotation Xrotation
		JOINT RightUpLeg
		{
			OFFSET -1.305520 -1.794630 0.839290
			CHANNELS 3 Zrotation Yrotation Xrotation
			JOINT RightLeg
			{
				OFFSET -2.542530 -6.985550 0.000000
				CHANNELS 3 Zrotation Yrotation Xrotation
				JOINT RightFoot
				{
					OFFSET -2.568260 -7.056230 0.000000
					CHANNELS 3 Zrotation Yrotation Xrotation
					JOINT RightToeBase
					{
						OFFSET -0.164730 -0.452590 2.363150
						CHANNELS 3 Zrotation Yrotation Xrotation
						End Site
						{
							OFFSET 0.000000 0.000000 0.000000
						}
					}
				}
			}
		}
	}
	JOINT LowerBack
	{
		OFFSET 0.000000 0.000000 0.000000
		CHANNELS 3 Zrotation Yrotation Xrotation
		JOINT Spine
		{
			OFFSET 0.028270 2.035590 -0.193380
			CHANNELS 3 Zrotation Yrotation Xrotation
			JOINT Spine1
			{
				OFFSET 0.056720 2.048850 -0.042750
				CHANNELS 3 Zrotation Yrotation Xrotation
				JOINT Neck
				{
					OFFSET 0.000000 0.000000 0.000000
					CHANNELS 3 Zrotation Yrotation Xrotation
					JOINT Neck1
					{
						OFFSET -0.054170 1.746240 0.172020
						CHANNELS 3 Zrotation Yrotation Xrotation
						JOINT Head
						{
							OFFSET 0.104070 1.761360 -0.123970
							CHANNELS 3 Zrotation Yrotation Xrotation
							End Site
							{
								OFFSET 0.000000 0.000000 0.000000
							}
						}
					}
				}
				JOINT LeftShoulder
				{
					OFFSET 0.000000 0.000000 0.000000
					CHANNELS 3 Zrotation Yrotation Xrotation
					JOINT LeftArm
					{
						OFFSET 3.362410 1.200890 -0.311210
						CHANNELS 3 Zrotation Yrotation Xrotation
						JOINT LeftForeArm
						{
							OFFSET 4.983000 -0.000000 -0.000000
							CHANNELS 3 Zrotation Yrotation Xrotation
							JOINT LeftHand
							{
								OFFSET 3.483560 -0.000000 -0.000000
								CHANNELS 3 Zrotation Yrotation Xrotation
								JOINT LeftFingerBase
								{
									OFFSET 0.000000 0.000000 0.000000
									CHANNELS 3 Zrotation Yrotation Xrotation
									JOINT LeftHandIndex1
									{
										OFFSET 0.715260 -0.000000 -0.000000
										CHANNELS 3 Zrotation Yrotation Xrotation
										End Site
										{
											OFFSET 0.000000 0.000000 0.000000
										}
									}
								}
								JOINT LThumb
								{
									OFFSET 0.000000 0.000000 0.000000
									CHANNELS 3 Zrotation Yrotation Xrotation
									End Site
									{
										OFFSET 0.000000 0.000000 0.000000
									}
								}
							}
						}
					}
				}
				JOINT RightShoulder
				{
					OFFSET 0.000000 0.000000 0.000000
					CHANNELS 3 Zrotation Yrotation Xrotation
					JOINT RightArm
					{
						OFFSET -3.136600 1.374050 -0.404650
						CHANNELS 3 Zrotation Yrotation Xrotation
						JOINT RightForeArm
						{
							OFFSET -5.241900 -0.000000 -0.000000
							CHANNELS 3 Zrotation Yrotation Xrotation
							JOINT RightHand
							{
								OFFSET -3.444170 -0.000000 -0.000000
								CHANNELS 3 Zrotation Yrotation Xrotation
								JOINT RightFingerBase
								{
									OFFSET 0.000000 0.000000 0.000000
									CHANNELS 3 Zrotation Yrotation Xrotation
									JOINT RightHandIndex1
									{
										OFFSET -0.622530 -0.000000 -0.000000
										CHANNELS 3 Zrotation Yrotation Xrotation
										End Site
										{
											OFFSET 0.000000 0.000000 0.000000
										}
									}
								}
								JOINT RThumb
								{
									OFFSET 0.000000 0.000000 0.000000
									CHANNELS 3 Zrotation Yrotation Xrotation
									End Site
									{
										OFFSET 0.000000 0.000000 0.000000
									}
								}
							}
						}
					}
				}
			}
		}
	}
}
MOTION
Frames: 11
Frame Time: 0.008333
-28.372389 17.405898 5.409415 172.064461 24.414551 -175.673146 18.565271 4.192371 -2.923273 -41.093438 -18.565339 9.162962 -13.331217 -1.108358 -0.744739 0.030820 1.669772 -4.768973 13.160300 -18.839300 -69.622700 -15.491146 -3.734020 -3.757869 11.962945 0.511780 -13.795598 5.513469 -9.190205 25.098115 -1.176621 -2.989017 -15.893047 -0.722200 5.430200 -15.139700 -0.096242 3.642333 11.647979 -2.103344 6.754566 -4.782771 -14.394697 1.778899 -16.127454 17.090409 11.075865 -6.674366 1.558610 16.187411 14.168577 -3.014400 9.875500 11.565000 7.861662 -6.310475 1.111898 -71.285395 14.688083 20.226382 10.160982 -21.870714 -3.621887 -0.957055 1.463568 7.151875 23.523643 34.182009 13.838300 -7.125000 0.000000 0.000000 -9.462600 64.672400 -4.524200 -10.172682 6.395779 1.129225 79.127697 0.765117 30.561503 -16.521881 32.437684 -5.235867 0.054271 -2.803615 -13.569118 -33.110006 -21.462876 11.348500 7.125000 0.000000 0.000000 -4.573900 -51.357200 0.717500 
-28.287995 17.397866 5.457058 172.198926 22.894158 -175.552042 18.451415 4.167104 -2.900985 -40.471331 -18.805641 8.767305 -13.243875 -0.928513 -0.393509 0.042343 0.574272 -3.974338 13.167700 -18.841900 -69.645400 -15.504492 -3.725402 -3.762942 12.263531 1.297970 -13.275787 5.506667 -9.426031 25.723043 -1.305820 -2.900762 -16.727778 -0.761800 5.573900 -15.553000 -0.314713 3.626235 11.888209 -2.164935 6.706572 -4.750138 -14.535235 1.779461 -16.061053 17.068560 10.877820 -6.996678 1.762902 15.869661 14.205377 -2.897600 9.746300 11.573900 7.756949 -6.286535 1.117661 -70.663634 14.839650 23.498464 10.657012 -22.472349 -3.748112 -0.908855 1.474059 8.367661 25.053127 33.896244 14.650200 -7.125000 0.000000 0.000000 -7.376900 64.779900 -3.539500 -10.136679 6.425693 1.133993 79.457802 0.449495 28.739664 -18.048712 33.952338 -5.851706 0.172813 -2.828476 -16.230527 -33.704987 -21.458620 11.563400 7.125000 0.000000 0.000000 -5.180200 -51.406600 0.819300 
-28.195020 17.386313 5.505801 172.286414 21.220989 -175.481578 18.349608 4.144200 -2.878260 -39.914182 -19.107584 8.404993 -13.156991 -0.751106 -0.048380 0.056507 -0.631881 -3.107798 13.174800 -18.844400 -69.667500 -15.524817 -3.739767 -3.765152 12.510004 1.999872 -12.694411 5.461387 -9.629039 26.349208 -1.457843 -2.703462 -17.377672 -0.801900 5.715500 -15.961100 -0.578494 3.577602 12.163384 -2.208941 6.592052 -4.714957 -14.570124 1.765562 -16.017229 16.902047 10.663726 -7.342453 1.908371 15.525843 14.194903 -2.797000 9.583500 11.552800 7.675305 -6.280039 1.121937 -70.248086 14.785035 26.399745 11.157518 -23.012644 -3.822413 -0.870349 1.494000 9.642954 25.446567 32.917148 14.500800 -7.125000 0.000000 0.000000 -6.259800 63.887800 -2.871300 -10.096713 6.470396 1.149128 79.782349 -0.032028 27.285941 -19.700165 35.530523 -6.533187 0.301129 -2.840591 -19.099468 -34.222800 -21.319825 11.670200 7.125000 0.000000 0.000000 -5.715700 -51.297200 0.889100 
-28.094232 17.373439 5.555865 172.361816 19.411626 -175.441295 18.250024 4.120651 -2.851177 -39.369477 -19.497706 8.064960 -13.070235 -0.578661 0.285488 0.069404 -1.823740 -2.205038 13.184100 -18.847600 -69.696200 -15.550794 -3.768860 -3.767912 12.731592 2.602689 -12.088104 5.375695 -9.818627 27.006043 -1.637306 -2.366890 -17.848339 -0.828100 5.805800 -16.221900 -0.844446 3.519040 12.470906 -2.240637 6.454476 -4.682162 -14.568893 1.746649 -16.008920 16.770255 10.388074 -7.697572 1.922209 15.080418 14.157420 -2.792800 9.372800 11.542800 7.614659 -6.288759 1.119609 -69.985814 14.533889 28.891593 11.598789 -23.493612 -3.909981 -0.831969 1.512614 10.699293 26.107071 32.380632 14.669300 -7.125000 0.000000 0.000000 -5.131200 63.497000 -2.305300 -10.054544 6.525304 1.171046 80.143082 -0.675130 26.148567 -21.331456 37.041684 -7.230328 0.421100 -2.842346 -21.899704 -34.685245 -21.040189 11.668300 7.125000 0.000000 0.000000 -6.194900 -51.023800 0.922400 
-27.985412 17.361336 5.606479 172.499516 17.476038 -175.389242 18.133469 4.093409 -2.814968 -38.730620 -20.015395 7.726170 -12.975958 -0.416083 0.600935 0.083778 -2.974441 -1.282271 13.200200 -18.853300 -69.746300 -15.581440 -3.799320 -3.777160 13.008871 3.113931 -11.483522 5.263833 -10.017465 27.714155 -1.836918 -1.896959 -18.175689 -0.837600 5.838200 -16.315600 -1.053030 3.441769 12.770274 -2.251823 6.292937 -4.650466 -14.469639 1.707806 -16.044970 16.405546 13.171890 -8.097230 2.355247 13.463974 14.411593 -2.808900 6.984600 11.644000 7.541158 -6.284177 1.121968 -69.934371 14.107667 30.849165 11.945745 -23.875904 -3.987990 -0.798799 1.530222 11.459650 26.760019 32.122383 14.938300 -7.125000 0.000000 0.000000 -4.183800 63.380200 -1.867300 -10.052981 6.626296 1.221600 80.515145 -1.419553 25.382757 -22.802874 38.372468 -7.880181 0.518320 -2.837140 -24.386117 -35.117053 -20.602232 11.553200 7.125000 0.000000 0.000000 -6.638900 -50.569200 0.914700 
-27.867790 17.351873 5.656543 172.762949 15.419166 -175.295054 17.983264 4.057384 -2.769115 -37.906020 -20.685255 7.377947 -12.865179 -0.267956 0.894798 0.104488 -4.107687 -0.302742 13.211100 -18.857100 -69.780000 -15.619483 -3.826799 -3.794989 13.421226 3.517161 -10.897679 5.140598 -10.238241 28.482013 -2.036565 -1.316008 -18.352201 -0.844300 5.860900 -16.381300 -1.141175 3.360647 13.026665 -2.243342 6.134665 -4.620325 -14.380626 1.675717 -16.037895 16.195774 12.813235 -8.418182 2.264860 12.975615 14.387036 -2.867800 6.750700 11.650400 7.538831 -6.316593 1.102070 -70.115649 13.455815 32.199293 12.158448 -24.124869 -4.040368 -0.771991 1.548552 11.937866 27.274319 32.077942 15.212100 -7.125000 0.000000 0.000000 -3.521900 63.442800 -1.576700 -10.029984 6.682409 1.253297 80.911507 -2.217596 24.995166 -23.982530 39.427664 -8.413556 0.583116 -2.831177 -26.352151 -35.525169 -20.029927 11.337200 7.125000 0.000000 0.000000 -7.049300 -49.957400 0.865300 
-27.740705 17.347252 5.705286 173.184238 13.253352 -175.148990 17.796889 4.012821 -2.709945 -36.853316 -21.536949 7.010496 -12.738682 -0.132816 1.169277 0.136560 -5.042387 0.683245 13.191700 -18.850300 -69.719700 -15.663098 -3.845886 -3.822600 14.014259 3.791802 -10.336417 5.027015 -10.472718 29.278909 -2.189762 -0.718220 -18.341611 -0.888000 6.006800 -16.804200 -1.072844 3.279150 13.219014 -2.223823 6.000922 -4.597625 -14.282940 1.643800 -16.012066 15.801355 12.451862 -8.739602 2.333666 12.495899 14.458318 -2.795900 6.506800 11.670200 7.552074 -6.352739 1.067216 -70.498022 12.637378 33.064283 12.260927 -24.258068 -4.067656 -0.755321 1.565966 12.119711 27.572188 32.244331 15.449200 -7.125000 0.000000 0.000000 -3.233700 63.668100 -1.464600 -10.036362 6.736135 1.283721 81.359166 -3.042862 24.935436 -24.745670 40.131392 -8.758846 0.614814 -2.832668 -27.580750 -35.801151 -19.454286 11.057900 7.125000 0.000000 0.000000 -7.316500 -49.315600 0.782400 
-27.603718 17.348022 5.752489 173.770293 11.000297 -174.951794 17.574085 3.959112 -2.636585 -35.563912 -22.621576 6.634591 -12.593183 -0.017701 1.405518 0.185242 -5.771728 1.696405 13.139000 -18.831800 -69.556800 -15.716477 -3.854076 -3.862768 14.818674 3.962498 -9.778270 4.949890 -10.701589 30.038466 -2.284720 -0.127802 -18.154281 -0.982000 6.307800 -17.680200 -0.922697 3.216422 13.321418 -2.183625 5.902480 -4.576730 -14.110192 1.631815 -15.941887 15.262996 12.098161 -9.082298 2.554371 12.036934 14.616932 -2.604700 6.264200 11.717800 7.584658 -6.385349 1.017597 -71.054606 11.665526 33.634931 12.294866 -24.335508 -4.084923 -0.746968 1.583005 11.964820 27.798736 32.616329 15.732600 -7.125000 0.000000 0.000000 -3.139800 64.084500 -1.452500 -10.073820 6.786732 1.312506 81.850677 -3.829742 25.180952 -25.025961 40.437480 -8.867010 0.618752 -2.843803 -27.969600 -35.809967 -18.991361 10.745600 7.125000 0.000000 0.000000 -7.316000 -48.758200 0.681500 
-27.456717 17.354514 5.798152 174.512818 8.687610 -174.720278 17.321313 3.896242 -2.551021 -34.053663 -23.962405 6.265231 -12.430928 0.071857 1.586591 0.250760 -6.139779 2.671399 13.053900 -18.801500 -69.292700 -15.783728 -3.852064 -3.914308 15.852056 4.106469 -9.174391 4.935923 -10.902230 30.679548 -2.345359 0.510911 -17.851316 -1.103000 6.673300 -18.751000 -0.678332 3.160684 13.340737 -2.119196 5.824589 -4.560254 -13.864382 1.629061 -15.846927 14.646065 11.744127 -9.415846 2.892828 11.583002 14.838517 -2.328800 6.021200 11.786800 7.635520 -6.414776 0.954311 -71.772911 10.640107 34.099888 12.330419 -24.437841 -4.115216 -0.740985 1.601020 11.427578 28.188704 33.144873 16.179100 -7.125000 0.000000 0.000000 -2.926400 64.695400 -1.395300 -10.134700 6.835505 1.339115 82.347936 -4.568784 25.851186 -24.872773 40.390747 -8.751123 0.602595 -2.862746 -27.661168 -35.569119 -18.693352 10.450100 7.125000 0.000000 0.000000 -7.073400 -48.353700 0.587900 
-27.300144 17.366507 5.842384 175.376269 6.344632 -174.478384 17.049349 3.826251 -2.457913 -32.360168 -25.517789 5.897065 -12.250169 0.137989 1.708134 0.328335 -6.163172 3.599008 12.955900 -18.766200 -68.988500 -15.871096 -3.842493 -3.976803 17.107223 4.263722 -8.498765 5.000782 -11.058038 31.147697 -2.373655 1.174899 -17.494627 -1.256700 7.106600 -20.031600 -0.390030 3.120096 13.289638 -2.029472 5.769749 -4.546818 -13.544012 1.639886 -15.746804 14.089047 11.368427 -9.681456 3.211779 11.101213 15.033992 -2.085400 5.773200 11.842300 7.707158 -6.441969 0.885944 -72.586387 9.637856 34.738774 12.459682 -24.659469 -4.174079 -0.741127 1.619135 10.480072 28.644906 33.717917 16.686200 -7.125000 0.000000 0.000000 -2.653400 65.363400 -1.306200 -10.206320 6.883076 1.366329 82.835516 -5.256552 26.988763 -24.375281 40.056566 -8.453951 0.573824 -2.886674 -26.847107 -35.113767 -18.586780 10.205900 7.125000 0.000000 0.000000 -6.626300 -48.141900 0.515700 
-27.134549 17.383562 5.884745 176.324129 3.991043 -174.252376 16.767116 3.751672 -2.362732 -30.520735 -27.208964 5.510998 -12.049197 0.186268 1.773797 0.410477 -5.901796 4.485608 12.874600 -18.736400 -68.735600 -15.986102 -3.831345 -4.051339 18.562840 4.408856 -7.749035 5.147680 -11.155934 31.411771 -2.364599 1.820457 -17.118473 -1.470100 7.662100 -21.692300 -0.083957 3.069316 13.187113 -1.901009 5.690261 -4.534365 -13.091247 1.649037 -15.649192 13.623140 10.988931 -9.906514 3.436716 10.608795 15.193750 -1.924200 5.527200 11.902700 7.807029 -6.472017 0.816121 -73.527985 8.745757 35.663310 12.753078 -25.074921 -4.273090 -0.753661 1.639094 9.154547 28.928235 34.314290 17.097900 -7.125000 0.000000 0.000000 -2.618500 66.004600 -1.327700 -10.274095 6.927633 1.392461 83.221966 -5.849303 28.703019 -23.653255 39.505136 -8.030649 0.540155 -2.907123 -25.698634 -34.451011 -18.606387 9.977700 7.125000 0.000000 0.000000 -5.985200 -48.054600 0.452600 
